<?xml version="1.0" encoding="utf-8"?>
<svg xmlns="http://www.w3.org/2000/svg" xmlns:xlink="http://www.w3.org/1999/xlink" version="1.1" style="width:0;height:0;position:absolute;overflow:hidden;">
  <defs>
<symbol viewBox="0 0 768 1024" aria-labelledby="dcsi-ant-file-title" id="si-ant-file"><title id="dcsi-ant-file-title">icon file</title><path d="M509 64l195 218v669q0 3-4 6t-9 3H77q-5 0-9-3t-4-6V73q0-3 4-6t9-3h432zm29-64H77Q45 0 22.5 21.5T0 73v878q0 30 22.5 51.5T77 1024h614q32 0 54.5-21.5T768 951V257zm-26 256V0h-64v256q0 26 19 45t45 19h253v-64H512z"/></symbol>
<symbol viewBox="0 0 1024 896" aria-labelledby="dksi-ant-folder-title" id="si-ant-folder"><title id="dksi-ant-folder-title">icon folder</title><path d="M405 64q5 0 11 5t7 10l19 77v1q5 23 26 39 20 17 45 17h437q10 0 10 11v597q0 5-3 8t-6 3H73q-9 0-9-11V75q0-11 9-11h332zm0-64H73Q43 0 21.5 22T0 75v746q0 31 21.5 53T73 896h878q30 0 51.5-22t21.5-53V224q0-31-21.5-53T951 149H514q-3 0-6-2.5t-4-4.5l-18-77q-7-28-30-46.5T405 0z"/></symbol>
  </defs>
</svg>
