<?xml version="1.0" encoding="utf-8"?>
<svg xmlns="http://www.w3.org/2000/svg" xmlns:xlink="http://www.w3.org/1999/xlink" version="1.1" style="width:0;height:0;position:absolute;overflow:hidden;">
  <defs>
<symbol viewBox="0 0 1024 574" aria-labelledby="cmsi-ant-down-title" id="si-ant-down"><title id="cmsi-ant-down-title">icon down</title><path d="M1015 10q-10-10-23-10t-23 10L512 492 55 10Q45 0 32 0T9 10Q0 20 0 34t9 24l480 506q10 10 23 10t23-10l480-506q9-10 9-24t-9-24z"/></symbol>
<symbol viewBox="0 0 574 1024" aria-labelledby="fqsi-ant-right-title" id="si-ant-right"><title id="fqsi-ant-right-title">icon right</title><path d="M10 9Q0 19 0 32t10 23l482 457L10 969Q0 979 0 992t10 23q10 9 24 9t24-9l506-480q10-10 10-23t-10-23L58 9Q48 0 34 0T10 9z"/></symbol>
  </defs>
</svg>
